<?xml version="1.0" encoding="utf-8"?>
<!DOCTYPE svg PUBLIC "-//W3C//DTD SVG 1.1//EN" "http://www.w3.org/Graphics/SVG/1.1/DTD/svg11.dtd">
<svg version="1.1" id="footer" xmlns="http://www.w3.org/2000/svg" xmlns:xlink="http://www.w3.org/1999/xlink" x="0px" y="0px"
	 width="800px" height="44px" viewBox="0 0 800 44" enable-background="new 0 0 800 44" xml:space="preserve">
<g>
	<path d="M796,0c1.333,0,2.667,0,4,0c0,14.667,0,29.333,0,44c-266.667,0-533.333,0-800,0C0,29.333,0,14.667,0,0c65,0,130,0,195,0
		c10.135,0.352,20.268,0.791,30.406,1.037c29.597,0.716,59.195,1.365,88.793,2.021c16.744,0.37,33.489,0.723,50.235,1.032
		c4.806,0.09,9.615-0.067,14.422,0.011c12.94,0.213,25.88,0.649,38.821,0.695c10.957,0.04,21.922-0.652,32.873-0.466
		c18.378,0.314,36.745,1.399,55.121,1.545c17.485,0.138,34.976-0.614,52.465-0.779c11.243-0.106,22.493,0.356,33.734,0.18
		c15.781-0.25,31.554-1.009,47.335-1.282c50.633-0.878,101.268-1.618,151.9-2.496C792.745,1.469,794.369,0.52,796,0z"/>
</g>
</svg>
