<?xml version="1.0" encoding="utf-8"?>
<!-- Generator: Adobe Illustrator 16.0.0, SVG Export Plug-In . SVG Version: 6.00 Build 0)  -->
<!DOCTYPE svg PUBLIC "-//W3C//DTD SVG 1.1//EN" "http://www.w3.org/Graphics/SVG/1.1/DTD/svg11.dtd">
<svg version="1.1" id="Layer_1" xmlns="http://www.w3.org/2000/svg" xmlns:xlink="http://www.w3.org/1999/xlink" x="0px" y="0px"
	 width="100%" height="100%" viewBox="0 0 416.787 75.062" enable-background="new 0 0 416.787 75.062"
	 xml:space="preserve">
	 <defs>
      <filter id="drop-shadow" x="0" y="0" width="100%" height="100%">
        <feOffset result="offOut" in="SourceAlpha" dx="3" dy="3" />
        <feGaussianBlur result="blurOut" in="offOut" stdDeviation="2" />
        <feBlend in="SourceGraphic" in2="blurOut" mode="normal" />
      </filter>
    </defs>
<g>
	<path filter="url(#drop-shadow)" fill-rule="evenodd" clip-rule="evenodd" d="M366.38,50.646c-0.047-0.174-0.108-0.404-0.187-0.696
		c-0.748,0.079-0.94,0.765-1.144,1.22c-0.832,1.858-1.552,3.766-2.306,5.659c-0.625,1.563-1.19,3.152-1.885,4.685
		c-0.244,0.535-0.792,0.937-1.21,1.388c-0.169,0.183-0.386,0.322-0.546,0.511c-0.764,0.9-0.856,0.899-1.417-0.146
		c-0.416,0.385-0.828,0.746-1.219,1.13c-0.326,0.321-0.63,0.6-1.142,0.348c-0.121-0.059-0.345,0.043-0.501,0.116
		c-0.228,0.107-0.434,0.258-0.652,0.386c-0.963,0.572-1.689,0.3-2.06-0.788c-0.125-0.365-0.167-0.76-0.312-1.114
		c-0.092-0.225-0.298-0.406-0.464-0.597c-0.209-0.241-0.562-0.442-0.624-0.715c-0.244-1.087-0.398-2.193-0.586-3.293
		c-0.021-0.112-0.017-0.242-0.073-0.334c-0.86-1.412-0.146-2.855-0.096-4.285c0.015-0.388,0-0.777,0.029-1.166
		c0.036-0.467,0.105-0.932,0.157-1.397c0.019-0.164,0.029-0.328,0.049-0.529c-1.004,0.335-1.773,0.729-2.056,1.805
		c-0.084,0.317-0.697,0.55-1.11,0.718c-1.368,0.554-2.748,1.076-4.135,1.579c-0.623,0.226-1.276,0.365-1.908,0.568
		c-0.562,0.18-1.103,0.44-1.673,0.583c-1.036,0.262-2.087,0.466-3.132,0.688c-0.29,0.061-0.596,0.062-0.875,0.151
		c-1.457,0.465-2.919,0.49-4.402,0.146c-1.063-0.246-2.144-0.429-3.203-0.693c-0.362-0.091-0.717-0.301-1.018-0.532
		c-0.586-0.447-1.134-0.944-1.691-1.429c-0.083-0.072-0.156-0.179-0.19-0.282c-0.564-1.675-1.672-2.987-2.813-4.285
		c-0.245-0.279-0.374-0.673-0.518-1.028c-0.344-0.848-0.663-1.706-0.994-2.559c-0.032-0.083-0.109-0.166-0.103-0.244
		c0.046-0.624-0.377-1.018-0.638-1.516c-0.393-0.752-0.644-1.633-0.724-2.482c-0.121-1.294-0.169-2.621-0.021-3.909
		c0.179-1.586,0.481-3.177,0.932-4.706c0.42-1.425,1.009-2.822,1.697-4.14c0.85-1.627,1.882-3.16,2.833-4.734
		c0.872-1.445,1.707-2.915,2.626-4.33c0.484-0.745,1.111-1.395,1.673-2.088c0.185-0.228,0.357-0.466,0.556-0.681
		c0.802-0.869,1.645-1.701,2.407-2.601c1.2-1.414,2.699-2.458,4.19-3.514c0.847-0.599,1.856-0.399,2.806-0.483
		c0.067-0.006,0.139,0.02,0.207,0.01c1.178-0.188,2.057,0.264,2.711,1.238c0.123,0.182,0.311,0.382,0.508,0.442
		c0.77,0.234,0.804,0.796,0.825,1.468c0.035,1.046,0.17,2.089,0.284,3.132c0.015,0.141,0.142,0.274,0.229,0.402
		c0.325,0.47,0.447,0.945,0.345,1.546c-0.138,0.819-0.259,1.689,0.545,2.331c0.125,0.1,0.161,0.366,0.161,0.556
		c0.004,1.421,0.012,2.842-0.033,4.261c-0.02,0.637-0.156,1.271-0.237,1.906c-0.059,0.461-0.359,0.604-0.775,0.597
		c-0.091-0.001-0.183-0.021-0.274-0.029c-1.05-0.089-1.999,0.043-2.808,0.857c-0.794,0.799-1.754,1.435-2.521,2.255
		c-0.914,0.979-1.752,2.042-2.528,3.135c-0.872,1.227-1.653,2.518-2.436,3.805c-0.115,0.189-0.02,0.507-0.021,0.765
		c0.241-0.055,0.483-0.104,0.723-0.166c0.307-0.077,0.607-0.182,0.915-0.247c1.447-0.309,2.914-0.541,4.332-0.945
		c0.501-0.143,0.904-0.543,1.46-0.189c0.061,0.04,0.187,0.01,0.27-0.02c1.261-0.455,2.589-0.786,3.76-1.411
		c1.071-0.572,2.177-0.994,3.295-1.426c0.473-0.183,0.854-0.597,1.29-0.886c0.271-0.179,0.55-0.383,0.855-0.465
		c1.014-0.271,1.917-0.69,2.788-1.319c0.952-0.688,2.1-1.101,3.131-1.687c1.109-0.631,2.194-1.308,3.266-2.003
		c0.203-0.131,0.314-0.43,0.424-0.67c0.829-1.8,0.878-3.878,2.045-5.575c0.328-0.476,0.284-1.194,0.479-1.78
		c0.233-0.707,0.54-1.391,0.814-2.085c0.017-0.042,0.045-0.082,0.056-0.125c0.358-1.323,0.668-2.661,1.078-3.967
		c0.641-2.045,0.965-4.198,2.14-6.067c0.345-0.548,0.397-1.271,0.68-1.869c0.299-0.634,0.756-1.192,1.065-1.823
		c0.775-1.579,2.043-2.635,3.538-3.465c0.608-0.337,2.188-0.04,2.636,0.476c0.046,0.052,0.087,0.137,0.141,0.145
		c1.27,0.209,1.023,1.269,1.04,2.052c0.014,0.718,0.221,1.161,0.836,1.488c0.627,0.333,0.75,0.802,0.609,1.548
		c-0.183,0.969-0.054,1.991-0.104,2.989c-0.042,0.843,0.121,1.605,0.46,2.393c0.188,0.44-0.028,1.063-0.095,1.6
		c-0.038,0.317-0.195,0.625-0.203,0.939c-0.022,0.979-0.438,1.79-0.937,2.601c-0.231,0.376-0.292,0.862-0.41,1.304
		c-0.224,0.829-0.445,1.659-0.64,2.496c-0.037,0.159,0.004,0.464,0.099,0.508c0.778,0.359,0.617,1.115,0.769,1.73
		c0.144,0.592,0.349,0.737,0.839,0.375c0.677-0.497,1.305-1.067,1.913-1.647c0.835-0.795,1.571-1.708,2.465-2.425
		c1.088-0.874,2.307-1.585,3.449-2.395c0.321-0.227,0.539-0.602,0.863-0.821c0.747-0.504,1.541-0.938,2.293-1.433
		c0.511-0.336,0.962-0.764,1.479-1.088c0.643-0.403,1.321-0.751,1.994-1.106c1.302-0.689,2.59-1.406,3.919-2.039
		c1.13-0.539,2.372-0.865,3.451-1.483c1.658-0.951,3.555-1.25,5.239-2.111c1.523-0.779,3.299-0.33,4.431,0.996
		c0.059,0.069,0.129,0.175,0.199,0.179c0.846,0.051,0.723,0.649,0.686,1.196c-0.041,0.604-0.078,1.115,0.812,1.156
		c0.673,0.031,1.065,1.028,0.625,1.543c-0.562,0.658-0.566,1.244-0.179,1.98c0.206,0.387,0.214,0.888,0.271,1.342
		c0.055,0.431-0.052,0.704-0.524,0.968c-0.483,0.27-0.766,0.886-1.166,1.323c-0.456,0.498-0.937,0.974-1.424,1.44
		c-0.572,0.546-1.298,0.985-1.718,1.626c-1.072,1.635-2.609,2.682-4.213,3.674c-0.711,0.439-1.469,0.81-2.146,1.295
		c-0.955,0.685-1.83,1.481-2.784,2.17c-1.218,0.878-2.501,1.667-3.716,2.548c-0.952,0.69-1.854,1.449-2.758,2.204
		c-0.426,0.357-0.288,1.059,0.231,1.245c2.473,0.883,4.825,2.029,7.133,3.271c1.117,0.602,2.246,1.192,3.316,1.871
		c1.358,0.859,2.872,1.498,3.826,2.94c0.422,0.638,1.158,1.067,1.758,1.585c0.714,0.614,1.42,1.237,2.159,1.818
		c0.272,0.213,0.638,0.301,0.949,0.468c0.223,0.122,0.512,0.231,0.624,0.43c0.503,0.882,1.253,1.372,2.167,1.797
		c1.186,0.551,2.264,1.332,3.387,2.014c0.095,0.058,0.183,0.135,0.285,0.169c0.985,0.329,1.298,1.067,0.776,2.045
		c-0.232,0.434-0.171,0.675,0.146,1.018c0.18,0.197,0.224,0.567,0.23,0.862c0.017,0.652-0.063,1.309-0.037,1.961
		c0.024,0.601-0.227,0.964-0.774,1.133c-0.283,0.087-0.582,0.138-0.879,0.171c-0.372,0.042-0.547,0.211-0.467,0.593
		c0.135,0.634-0.154,0.852-0.753,0.781c-0.401-0.049-0.797-0.104-0.843,0.495c-0.008,0.107-0.212,0.267-0.343,0.286
		c-0.811,0.117-1.624,0.233-2.439,0.277c-0.294,0.015-0.7-0.086-0.879-0.289c-0.498-0.566-1.108-0.582-1.762-0.55
		c-0.414,0.019-0.827,0.044-1.241,0.04c-0.201-0.001-0.486,0.007-0.591-0.113c-0.773-0.89-1.957-0.942-2.898-1.476
		c-0.603-0.341-1.158-0.767-1.761-1.109c-1.645-0.94-3.314-1.834-4.951-2.784c-2.297-1.333-4.626-2.579-7.164-3.408
		c-0.817-0.269-1.565-0.742-2.351-1.111c-0.347-0.163-0.697-0.332-1.062-0.448c-1.093-0.349-2.191-0.677-3.291-1.002
		c-1.158-0.345-2.337-0.631-3.475-1.029c-1.385-0.483-2.24,0.315-3.166,1.102c-0.539,0.459-1.164,0.825-1.787,1.166
		c-0.16,0.088-0.585,0-0.662-0.135c-0.118-0.211-0.126-0.566-0.031-0.799c0.325-0.811,0.2-1.305-0.486-1.479
		c-0.17-0.043-0.414,0.012-0.563,0.11c-0.68,0.45-1.316,0.97-2.015,1.384c-0.245,0.146-0.657,0.158-0.936,0.062
		c-0.564-0.194-0.987,0.003-1.341,0.365C367.337,49.489,366.891,50.054,366.38,50.646z"/>
	<path filter="url(#drop-shadow)" fill-rule="evenodd" clip-rule="evenodd" d="M129.448,20.451c0.118-0.147,0.21-0.211,0.225-0.29
		c0.139-0.742,0.644-1.049,1.309-1.316c0.766-0.309,1.183-1.037,1.574-1.746c0.105-0.191,0.283-0.344,0.436-0.509
		c0.416-0.453,0.784-0.972,1.269-1.335c0.492-0.368,1.076-0.664,1.665-0.838c0.624-0.184,1.301-0.188,2.021-0.278
		c-0.093-0.254-0.157-0.433-0.216-0.594c0.641-0.695,1.439-0.912,2.3-0.744c0.562,0.109,1.119,0.344,1.615,0.63
		c0.127,0.073,0.02,0.554,0.02,0.833c1.074,0.776,2.323,1.479,3.311,2.449c1.008,0.991,1.884,2.149,2.206,3.635
		c0.237,1.092,0.501,2.159,1.22,3.136c0.995,1.352,1.266,3.035,1.373,4.699c0.073,1.137,0.078,2.28,0.074,3.42
		c-0.006,1.826,0.024,3.656-0.088,5.477c-0.109,1.783-0.294,3.57-0.607,5.327c-0.187,1.053-0.579,2.061-0.531,3.165
		c0.012,0.288-0.273,0.589-0.42,0.885c-0.058,0.117-0.171,0.245-0.157,0.354c0.221,1.661-0.536,3.146-0.85,4.709
		c-0.216,1.074-0.381,2.184-0.788,3.187c-0.524,1.295-0.216,2.683-0.659,3.966c-0.272,0.787-0.394,1.648-0.795,2.358
		c-0.248,0.439-0.866,0.863-1.366,0.93c-1.387,0.183-2.8,0.174-4.246,0.161c0.457-0.409,0.69-0.768,0.407-1.372
		c-0.105-0.223,0.146-0.613,0.258-1.012c-0.292-0.013-0.64-0.028-1.068-0.048c0.426-0.721-0.328-0.469-0.61-0.737
		c0.219-0.104,0.378-0.179,0.524-0.247c0.072-1.036-0.875-1.47-1.279-2.22c-0.073-0.135-0.279-0.266-0.261-0.369
		c0.061-0.353,0.255-0.65-0.203-0.95c-0.212-0.139-0.218-0.591-0.39-0.919c-0.279,0.616-0.177,1.438-1.126,1.809
		c-0.124-1.064-0.287-2.062-0.342-3.067c-0.052-0.934-0.015-1.875,0.03-2.811c0.073-1.512,0.142-3.026,0.293-4.531
		c0.089-0.881,0.364-1.743,0.509-2.621c0.3-1.811,0.571-3.625,0.845-5.438c0.02-0.128-0.035-0.268-0.061-0.438
		c-0.685,0.023-0.967,0.496-1.161,1.009c-0.292,0.774-0.5,1.579-0.797,2.351c-0.467,1.213-0.983,2.405-1.468,3.612
		c-0.053,0.131-0.057,0.292-0.053,0.438c0.013,0.461-0.076,0.813-0.531,1.096c-0.252,0.157-0.479,0.606-0.459,0.906
		c0.087,1.284-0.647,2.326-0.924,3.497c-0.28,1.183-1.047,2.147-1.292,3.385c-0.26,1.319-0.917,2.586-1.554,3.792
		c-0.287,0.543-0.938,0.899-1.44,1.32c-0.582,0.487-1.188,0.244-1.814,0.062c-0.543-0.158-1.115-0.227-1.678-0.306
		c-0.688-0.096-0.992-0.45-1.193-1.484c-0.578,0.05-0.955-0.137-1.094-0.796c-0.058-0.273-0.417-0.577-0.708-0.689
		c-0.993-0.38-1.644-1.007-2.059-2.014c-0.376-0.912-0.977-1.733-1.46-2.604c-0.084-0.151-0.113-0.354-0.105-0.531
		c0.047-1.074-0.337-2.19,0.407-3.208c0.167-0.228,0.048-0.721-0.038-1.066c-0.16-0.645-0.023-1.192,0.272-1.773
		c0.188-0.37,0.186-0.836,0.268-1.26c0.134-0.694,0.295-1.386,0.394-2.085c0.224-1.587,0.433-3.176,0.615-4.768
		c0.134-1.178,0.235-2.361,0.308-3.544c0.021-0.339-0.109-0.687-0.169-1.03c-0.361,0.087-0.814,0.068-1.062,0.284
		c-0.41,0.356-0.692,0.863-1.021,1.311c-0.19,0.258-0.346,0.545-0.555,0.786c-0.862,0.996-1.526,2.031-1.768,3.409
		c-0.193,1.095-0.887,2.098-1.323,3.155c-0.148,0.361-0.191,0.767-0.276,1.151c-0.039,0.178-0.046,0.363-0.099,0.535
		c-0.06,0.198-0.177,0.378-0.229,0.576c-0.527,1.978-1.047,3.957-1.566,5.936c-0.088,0.333-0.163,0.67-0.242,1.006
		c-0.226,0.953-0.434,1.908-0.681,2.855c-0.248,0.949-0.558,1.883-0.796,2.835c-0.277,1.111-0.429,2.259-0.772,3.347
		c-0.646,2.05-0.637,4.227-1.273,6.264c-0.311,0.994-1.206,1.734-2.411,1.277c-0.934-0.355-1.863-0.344-2.834-0.36
		c-0.591-0.01-1.229-0.424-1.747-0.795c-0.543-0.389-0.931-0.933-1.212-1.598c-0.235-0.557-0.745-1.06-1.251-1.416
		c-0.361-0.255-0.419-0.494-0.396-0.843c0.03-0.439-0.035-0.834-0.476-1.05c-1.419-0.698-1.534-1.969-1.472-3.321
		c0.049-1.065,0.079-2.132,0.151-3.193c0.021-0.311,0.161-0.61,0.239-0.917c0.562-2.188,1.144-4.369,1.674-6.563
		c0.28-1.158,0.451-2.342,0.704-3.507c0.125-0.577,0.302-1.145,0.494-1.703c0.577-1.676,0.64-3.516,1.68-5.051
		c0.239-0.353,0.189-0.889,0.341-1.317c0.241-0.675,0.556-1.323,0.811-1.993c0.525-1.384,1.03-2.756,1.332-4.233
		c0.263-1.285,0.552-2.556,0.787-3.852c0.244-1.343,1.194-2.545,1.727-3.852c0.507-1.244,1.61-1.707,2.61-2.378
		c0.71-0.479,1.41-0.764,2.241-0.91c0.403-0.071,0.768-0.465,1.111-0.759c0.511-0.438,0.881-1.059,1.657-1.12
		c0.125-0.01,0.232-0.201,0.354-0.3c0.265-0.218,0.503-0.543,0.807-0.625c0.655-0.176,1.183-0.476,1.571-1.028
		c0.049-0.069,0.148-0.154,0.219-0.15c1.549,0.08,2.963-0.9,4.55-0.557c0.914,0.198,1.89,0.206,2.75,0.53
		c0.542,0.204,0.942,0.818,1.367,1.283c0.598,0.652,1.167,1.333,1.734,2.011c0.188,0.225,0.367,0.467,0.498,0.727
		c0.388,0.77,0.683,1.598,1.152,2.312C128.468,20.013,129.004,20.174,129.448,20.451z"/>
	<path filter="url(#drop-shadow)" fill-rule="evenodd" clip-rule="evenodd" d="M161.875,72.797c-0.172-0.125-0.296-0.216-0.444-0.323
		c-0.482,0.53-1.007,0.555-1.614,0.169c-0.442-0.282-0.947-0.464-1.41-0.716c-0.71-0.388-0.795-0.838-0.581-1.626
		c0.119-0.438,0.102-1.015-0.093-1.412c-0.301-0.61-1-0.408-1.497-0.301c-0.484,0.104-0.908,0.2-1.249-0.191
		c-0.271-0.313-0.462-0.696-0.677-1.055c-1.057-1.76-0.455-3.717-0.575-5.571c-0.113-1.742,0.245-3.515,0.385-5.275
		c0.069-0.871,0.055-1.75,0.178-2.612c0.407-2.867,0.853-5.73,1.297-8.591c0.255-1.648,0.448-3.312,0.826-4.933
		c0.738-3.165,1.055-6.417,2.089-9.521c0.721-2.164,1.331-4.365,1.996-6.548c0.201-0.655,0.422-1.304,0.639-1.955
		c0.036-0.108,0.081-0.219,0.149-0.308c0.592-0.772,1.217-1.521,1.774-2.318c0.222-0.317,0.271-0.75,0.447-1.106
		c0.157-0.318,0.326-0.665,0.585-0.892c0.416-0.364,0.896-0.663,1.371-0.95c1.39-0.84,2.795-1.654,4.186-2.493
		c0.779-0.469,1.524-0.996,2.314-1.444c0.751-0.426,1.521-0.833,2.319-1.162c1.522-0.625,3.077-1.167,4.604-1.78
		c1.909-0.766,3.736-1.741,5.777-2.171c0.351-0.074,0.636-0.445,0.961-0.663c0.201-0.134,0.424-0.342,0.634-0.338
		c1.127,0.02,2.117-0.4,3.097-0.874c0.124-0.06,0.263-0.104,0.366-0.189c0.668-0.553,1.333-0.812,2.249-0.472
		c0.361,0.135,0.923-0.26,1.389-0.424c0.211-0.075,0.406-0.224,0.619-0.253c0.807-0.108,0.9,0.019,0.633,0.783
		c-0.251,0.718,0.079,1.277,0.813,1.36c0.514,0.058,1.029,0.099,1.649,0.158c-0.127,0.157-0.248,0.293-0.354,0.44
		c-0.357,0.493-0.15,1.097,0.412,1.075c0.576-0.023,0.735,0.467,1.101,0.683c0.607,0.356,0.168,0.731,0.167,1.118
		c-0.002,0.806,0.011,1.593-0.465,2.304c-0.066,0.099,0.046,0.305,0.045,0.461c-0.006,0.89,0.05,1.791-0.076,2.664
		c-0.043,0.297-0.545,0.54-0.859,0.78c-0.134,0.102-0.402,0.082-0.475,0.2c-0.558,0.903-1.452,1.24-2.383,1.599
		c-0.58,0.224-1.093,0.664-1.581,1.073c-0.471,0.394-0.934,0.694-1.56,0.85c-0.684,0.17-1.321,0.556-1.954,0.896
		c-0.995,0.533-1.943,1.161-2.959,1.647c-0.966,0.462-2.004,0.773-2.992,1.193c-0.937,0.398-1.852,0.845-2.772,1.281
		c-1.951,0.925-3.869,1.929-5.86,2.756c-1.055,0.439-2.106,0.84-2.943,1.623c-0.245,0.229-0.32,0.64-0.47,0.969
		c-0.08,0.177-0.156,0.355-0.228,0.535c-0.133,0.333-0.32,0.658-0.374,1.003c-0.052,0.329,0.042,0.68,0.061,1.022
		c0.051,0.865,0.617,1.2,1.429,0.865c1.129-0.466,2.276-0.89,3.393-1.383c0.769-0.339,1.48-0.81,2.252-1.14
		c0.639-0.272,1.332-0.418,1.998-0.631c0.21-0.067,0.402-0.196,0.615-0.251c0.278-0.073,0.568-0.139,0.854-0.14
		c0.382,0,0.786,0.163,1.143,0.082c0.769-0.174,1.5-0.544,2.273-0.668c0.609-0.097,1.258,0.055,1.889,0.097
		c0.005,0.065,0.01,0.129,0.014,0.194c0.042-0.052,0.129-0.113,0.121-0.157c-0.196-1.031,0.523-1.273,1.273-1.487
		c0.128-0.037,0.269-0.087,0.394-0.066c0.539,0.089,1.515,1.419,1.419,1.962c-0.036,0.199-0.198,0.377-0.305,0.563
		c-0.121,0.21-0.39,0.557-0.346,0.603c0.238,0.245,0.547,0.568,0.843,0.581c0.867,0.037,0.869,0.011,0.822,0.805
		c-0.016,0.269,0.098,0.605,0.27,0.814c0.625,0.758,0.673,1.551,0.336,2.439c-0.096,0.251-0.039,0.568-0.019,0.854
		c0.01,0.13,0.177,0.29,0.139,0.376c-0.186,0.414-0.613,0.823-0.581,1.202c0.036,0.43,0.411,0.863-0.066,1.221
		c-0.39,0.292-0.198,0.539-0.067,0.83c0.168,0.371,0.559,0.951,0.442,1.088c-0.348,0.403-0.866,0.711-1.374,0.915
		c-0.857,0.342-1.759,0.574-2.639,0.86c-0.08,0.025-0.189,0.092-0.208,0.16c-0.256,0.909-1.146,1.032-1.8,1.421
		c-0.544,0.323-1.181,0.483-1.759,0.753c-0.652,0.304-1.292,0.64-1.925,0.98c-0.875,0.472-1.735,0.97-2.612,1.438
		c-0.759,0.405-1.54,0.771-2.296,1.181c-0.658,0.355-1.277,0.79-1.948,1.116c-0.914,0.446-1.832,0.926-2.802,1.199
		c-1.058,0.298-2.175,0.39-3.27,0.545c-1.24,0.177-1.753,1.053-2.052,2.114c-0.155,0.552,0.252,1.042,0.812,0.934
		c1.003-0.196,1.988-0.481,2.98-0.734c0.619-0.158,1.252-0.281,1.851-0.496c1.263-0.452,2.507-0.955,3.76-1.434
		c0.084-0.032,0.182-0.054,0.27-0.046c1.543,0.147,2.743-0.72,4.022-1.352c0.204-0.101,0.426-0.283,0.622-0.264
		c1.2,0.121,2.295-0.295,3.39-0.655c0.556-0.183,1.053-0.545,1.574-0.832c0.566-0.313,1.12-0.566,1.818-0.504
		c0.656,0.06,1.33-0.042,1.993-0.105c0.85-0.082,1.402,0.449,1.357,1.291c-0.012,0.229,0.046,0.512,0.178,0.694
		c0.665,0.917,0.546,1.678-0.407,2.276c-0.336,0.211-0.206,0.316,0.024,0.545c0.412,0.407,0.779,0.874,1.099,1.358
		c0.088,0.135-0.037,0.428-0.1,0.639c-0.182,0.611-0.386,1.216-0.569,1.826c-0.053,0.175-0.005,0.421-0.111,0.532
		c-0.829,0.873-0.856,2.103-1.403,3.103c-0.101,0.184-0.037,0.604,0.113,0.757c0.639,0.652,0.624,0.896,0.413,1.742
		c-0.337,1.347-1.25,1.796-2.477,1.933c-0.219,0.025-0.425,0.157-0.64,0.232c-0.573,0.203-1.146,0.404-1.721,0.603
		c-0.107,0.037-0.23,0.04-0.329,0.091c-1.124,0.581-2.234,1.188-3.37,1.742c-0.361,0.177-0.789,0.213-1.182,0.331
		c-0.274,0.083-0.534,0.211-0.808,0.291c-0.412,0.12-0.886,0.124-1.237,0.336c-1.95,1.18-4.069,0.632-6.132,0.667
		c-0.62,0.01-1.242,0.006-1.861,0.048c-0.897,0.062-1.618-0.246-2.191-0.931c-0.116-0.139-0.256-0.377-0.38-0.373
		c-1.368,0.041-1.572-1.089-2.044-1.963c-0.113-0.21-0.325-0.367-0.492-0.547c-0.17,0.245-0.389,0.473-0.497,0.744
		c-0.079,0.198,0.033,0.465-0.02,0.682c-0.136,0.566-0.345,1.116-0.469,1.685c-0.08,0.362-0.175,0.786-0.063,1.114
		c0.313,0.917-0.257,1.585-0.845,1.974c-0.125,0.082-0.452,0.056-0.544-0.048c-0.494-0.549-0.666-0.278-0.779,0.257
		C161.993,72.536,161.946,72.618,161.875,72.797z M183.87,30.868c0.079,0.025,0.158,0.051,0.238,0.076
		c0.037,0.125,0.043,0.272,0.117,0.368c0.113,0.146,0.298,0.377,0.408,0.355c0.188-0.039,0.504-0.329,0.484-0.369
		c-0.16-0.309-0.342-0.761-0.603-0.824c-0.356-0.087-0.959-0.367-1.15,0.288c-0.094,0.322-0.016,0.693-0.016,1.042
		c0.036,0.002,0.072,0.003,0.108,0.004C183.594,31.495,183.732,31.181,183.87,30.868z M186.097,39.837
		c-0.202,0.107-0.479,0.241-0.743,0.399c-0.12,0.073-0.313,0.263-0.3,0.281c0.212,0.311,0.429,0.627,0.701,0.884
		c0.079,0.074,0.337-0.02,0.502-0.07c0.04-0.013,0.063-0.165,0.052-0.246C186.254,40.716,186.186,40.348,186.097,39.837z
		 M184.91,36.809c-0.435,0.475-0.428,1.486-0.06,1.733c0.128,0.085,0.356,0.072,0.52,0.029c0.079-0.021,0.187-0.241,0.156-0.323
		C185.354,37.787,185.143,37.341,184.91,36.809z"/>
	<path filter="url(#drop-shadow)" fill-rule="evenodd" clip-rule="evenodd" d="M268.59,33.746c0.245-0.073,0.486-0.146,0.743-0.222
		c0.479,0.807-0.107,1.139-0.727,1.475c0.131,0.102,0.197,0.197,0.264,0.198c0.892,0.011,0.9,0.154,1.063,1.041
		c0.305,1.644-0.55,2.91-1.144,4.285c-0.54,1.253-1.004,2.54-1.501,3.812c-0.041,0.106-0.056,0.244-0.131,0.311
		c-1.104,0.966-2.244,1.894-3.319,2.891c-0.701,0.649-1.308,1.399-1.963,2.098c-0.511,0.544-1.022,1.009-1.77,1.324
		c-0.869,0.366-1.659,1.043-2.33,1.736c-1.127,1.168-2.401,2.032-3.909,2.634c-1.154,0.462-2.234,1.108-3.356,1.656
		c-0.656,0.32-1.325,0.617-1.996,0.91c-0.955,0.419-1.97,0.732-2.863,1.255c-1.437,0.841-3.059,1.073-4.59,1.596
		c-0.747,0.256-1.52,0.494-2.298,0.585c-0.634,0.072-0.867,0.474-1.173,0.894c-0.2,0.273-0.432,0.588-0.723,0.717
		c-0.35,0.154-0.455,0.342-0.532,0.694c-0.119,0.55-0.359,1.072-0.532,1.612c-0.062,0.194-0.16,0.435-0.1,0.603
		c0.502,1.396-0.528,2.266-1.098,3.29c-0.193,0.349-0.416,0.683-0.69,1.13c-0.222-0.15-0.556-0.325-0.826-0.57
		c-0.414-0.374-0.733-0.533-1.206-0.022c-0.404,0.438-0.738-0.05-1.004-0.307c-0.188-0.182-0.267-0.476-0.412-0.755
		c-0.2,0.036-0.399,0.116-0.585,0.095c-0.821-0.092-1.271-0.638-0.923-1.38c0.452-0.97,0.433-1.619-0.729-2.018
		c-0.137,0.1-0.342,0.251-0.548,0.402c-0.075-0.019-0.149-0.037-0.224-0.057c0.064-0.511,0.132-1.022,0.189-1.534
		c0.021-0.188,0.086-0.421,0.005-0.56c-0.263-0.451-0.651-0.835-0.866-1.303c-0.335-0.728-0.532-1.518-0.857-2.249
		c-0.182-0.409-0.539-0.735-0.754-1.134c-0.171-0.315-0.349-0.685-0.34-1.025c0.016-0.643-0.087-1.142-0.681-1.512
		c-0.227-0.141-0.392-0.466-0.47-0.74c-0.163-0.567-0.456-0.968-0.962-1.302c-0.3-0.196-0.548-0.623-0.615-0.984
		c-0.07-0.374,0.146-0.791,0.163-1.192c0.017-0.382-0.063-0.769-0.105-1.2c0.634-0.046,0.951-0.359,0.877-1.021
		c-0.014-0.121,0.14-0.272,0.238-0.393c0.336-0.411,0.712-0.793,1.019-1.225c0.379-0.535,0.792-0.894,1.514-0.842
		c0.472,0.035,0.966-0.043,1.431-0.151c0.444-0.103,0.69-0.378,0.781-0.907c0.299-1.733,0.68-3.454,1.048-5.177
		c0.409-1.916,0.832-3.83,1.26-5.742c0.35-1.561,0.662-3.133,1.094-4.67c0.4-1.424,0.94-2.81,1.414-4.213
		c0.506-1.495,1.058-2.976,1.493-4.491c0.284-0.988,0.483-2.019,0.543-3.042c0.024-0.412-0.319-1.01-0.677-1.25
		c-0.977-0.652-1.582-1.389-1.324-2.632c0.041-0.197-0.083-0.431-0.143-0.645c-0.073-0.259-0.288-0.559-0.217-0.766
		c0.289-0.853-0.298-1.297-0.772-1.759c-0.753-0.733-1.146-1.556-0.898-2.61c0.037-0.16,0.175-0.434,0.244-0.428
		c0.96,0.095,1.262-0.717,1.593-1.288c0.542-0.935,1.354-1.197,2.3-1.298c0.863-0.092,1.729-0.213,2.594-0.219
		c2.371-0.017,4.705,0.267,6.99,0.936c1.553,0.455,3.131,0.822,4.688,1.261c0.385,0.108,0.738,0.333,1.1,0.518
		c1.268,0.646,2.549,1.271,3.797,1.955c0.848,0.465,1.676,0.977,2.465,1.534c1.353,0.956,2.693,1.934,3.991,2.963
		c0.54,0.429,0.938,1.032,1.435,1.522c0.336,0.333,0.873,0.536,1.07,0.923c0.386,0.759,0.894,1.426,1.322,2.148
		c0.077,0.13-0.062,0.39-0.105,0.589c-0.14,0.62,0.212,0.973,0.845,0.932c0.199-0.013,0.503,0.127,0.603,0.292
		c0.52,0.854,1.045,1.713,1.462,2.619c0.588,1.273,1.076,2.59,1.616,3.885c0.24,0.574,0.487,1.146,0.755,1.708
		c0.353,0.739,0.287,0.995-0.316,1.53c-0.183,0.162-0.295,0.439-0.362,0.685C268.794,32.649,268.712,33.159,268.59,33.746z
		 M241.899,42.811c0.113,0.852,0.157,0.883,0.951,0.655c0.129-0.037,0.281,0.003,0.407-0.04c1.05-0.352,2.109-0.684,3.14-1.09
		c0.548-0.216,1.028-0.601,1.566-0.846c0.924-0.42,1.881-0.767,2.803-1.189c0.562-0.258,1.063-0.654,1.632-0.896
		c1.76-0.75,3.473-1.576,4.97-2.789c0.546-0.442,1.101-0.878,1.604-1.366c0.849-0.823,1.741-1.631,1.748-2.968
		c0.001-0.181,0.163-0.366,0.265-0.541c0.524-0.904,0.466-1.445-0.223-2.24c-0.411-0.474-0.757-1.011-1.204-1.446
		c-0.73-0.71-1.47-1.427-2.298-2.01c-0.585-0.412-1.344-0.566-1.984-0.909c-0.561-0.299-1.022-0.82-1.604-1.036
		c-1.657-0.619-3.354-1.139-5.04-1.68c-0.322-0.104-0.69-0.077-1.01-0.189c-0.479-0.172-0.718-0.058-0.844,0.446
		c-0.336,1.34-0.751,2.662-1.05,4.01c-0.355,1.602-0.621,3.225-0.932,4.837c-0.051,0.268-0.127,0.531-0.196,0.795
		c-0.343,1.318-0.711,2.629-1.024,3.954c-0.277,1.173-0.456,2.371-0.751,3.539C242.569,40.824,242.211,41.812,241.899,42.811z
		 M231.737,65.791c-0.035,0.036-0.07,0.072-0.106,0.107c0.147,0.335,0.293,0.668,0.5,1.141c0.242-0.225,0.421-0.391,0.601-0.557
		C232.4,66.252,232.069,66.021,231.737,65.791z"/>
	<path filter="url(#drop-shadow)" fill-rule="evenodd" clip-rule="evenodd" d="M90.565,63.303c-0.242,0-0.447-0.051-0.598,0.017
		c-0.125,0.057-0.286,0.352-0.264,0.373c0.771,0.768,0.054,1.436-0.146,2.371c-0.23-0.429-0.391-0.681-0.504-0.952
		c-0.151-0.359-0.351-0.527-0.741-0.323c-0.119,0.062-0.267,0.126-0.39,0.109c-0.893-0.125-1.489,0.303-1.869,0.983
		c-0.673-0.352-1.461-0.536-1.871-1.034c-0.496-0.602-1.337-1.008-1.381-1.96c-0.023-0.503-0.089-1.039-0.812-1.052
		c-0.088-0.002-0.195-0.171-0.257-0.284c-0.995-1.804-1.022-3.744-0.845-5.729c0.083-0.911,0.051-1.833,0.056-2.75
		c0.003-0.503-0.261-0.703-0.759-0.613c-1.03,0.187-2.056,0.431-3.094,0.515c-0.454,0.037-0.932-0.264-1.402-0.406
		c-0.46-0.136-0.925-0.383-1.382-0.371c-0.764,0.018-1.429-0.25-1.815-0.946c-0.143-0.255-1.319-0.784-1.615-0.641
		c-0.451,0.218-1.021,0.267-1.098,1.019c-0.106,1.046-0.24,2.135-0.638,3.091c-0.452,1.09-0.627,2.225-0.95,3.33
		c-0.262,0.897-0.586,1.777-0.856,2.673c-0.401,1.33-0.751,2.679-1.18,4.001c-0.245,0.753-0.565,1.489-0.918,2.2
		c-0.399,0.807-1.632,1.211-2.669,0.966c-0.233-0.056-0.49-0.006-0.725-0.057c-0.377-0.082-0.75-0.195-1.115-0.319
		c-0.349-0.119-0.683-0.374-1.029-0.386c-0.764-0.023-1.307-0.213-1.581-1.022c-0.229-0.673-0.874-1.184-0.777-2.008
		c0.012-0.1-0.267-0.271-0.439-0.351c-0.947-0.444-1.345-1.365-1.279-2.422c0.108-1.743,0.752-3.344,1.113-5.017
		c0.5-2.314,0.807-4.673,1.167-7.019c0.163-1.066,0.201-2.152,0.393-3.212c0.141-0.779,0.609-1.523,0.632-2.292
		c0.037-1.229,0.622-2.26,0.922-3.388c0.288-1.077,0.515-2.171,0.808-3.247c0.439-1.614,0.882-3.229,1.383-4.824
		c0.312-0.997,0.986-1.943,1.047-2.939c0.089-1.438,0.853-2.599,1.177-3.926c0.302-1.239,0.741-2.464,1.277-3.623
		c0.513-1.113,1.192-2.156,1.872-3.18c0.268-0.404,0.751-0.657,1.108-1.008c0.335-0.331,0.633-0.698,0.945-1.053
		c0.252-0.286,0.451-0.745,0.759-0.834c1.09-0.317,1.45-1.296,1.982-2.076c0.744-1.092,1.353-2.28,1.981-3.447
		c0.297-0.553,0.44-1.194,0.771-1.722c0.444-0.71,0.949-1.401,1.524-2.008c0.901-0.949,2.023-1.604,3.229-2.113
		c0.1-0.042,0.189-0.123,0.268-0.202c0.756-0.769,1.504-0.758,2.327-0.058c0.741,0.631,1.537,1.198,2.32,1.78
		c0.099,0.073,0.263,0.091,0.393,0.08c1.048-0.086,1.355,0.204,1.697,1.264c0.405,1.259,0.923,2.481,1.396,3.718
		c0.04,0.105,0.144,0.199,0.15,0.302c0.1,1.794,1.013,3.291,1.709,4.878c0.512,1.164,0.824,2.421,1.156,3.654
		c0.382,1.415,0.715,2.844,1.02,4.277c0.238,1.121,0.437,2.253,0.59,3.389c0.229,1.703,0.383,3.416,0.606,5.119
		c0.151,1.158,0.527,2.309,0.511,3.458c-0.019,1.379-0.31,2.761-0.563,4.127c-0.079,0.424-0.476,0.779-0.618,1.203
		c-0.178,0.531-0.307,1.098-0.346,1.655c-0.104,1.492-0.128,2.991-0.223,4.486c-0.105,1.645-0.249,3.286-0.387,4.93
		c-0.042,0.498-0.166,0.991-0.18,1.488c-0.044,1.592-0.042,3.184-0.084,4.774c-0.015,0.519-0.117,1.035-0.181,1.551
		c-0.006,0.045-0.014,0.11-0.044,0.129c-1.066,0.664-0.492,1.694-0.578,2.577C90.638,63.065,90.604,63.151,90.565,63.303z
		 M81.133,25.317c0.046-0.002,0.092-0.005,0.138-0.008c-0.054-0.915-0.08-1.832-0.181-2.742c-0.027-0.242-0.275-0.629-0.444-0.642
		c-0.223-0.016-0.485,0.253-0.697,0.437c-0.089,0.078-0.063,0.278-0.145,0.378c-0.615,0.762-0.901,1.624-1.189,2.573
		c-0.562,1.856-1.508,3.592-2.253,5.396c-0.514,1.247-0.99,2.514-1.419,3.793c-0.288,0.857-0.494,1.746-0.661,2.635
		c-0.03,0.16,0.331,0.572,0.469,0.553c0.505-0.068,0.995-0.263,1.486-0.423c0.819-0.266,1.63-0.559,2.454-0.809
		c0.477-0.145,1.041-0.117,1.441-0.367c0.464-0.291,1.092-0.777,1.125-1.218c0.14-1.874,0.121-3.762,0.094-5.644
		C81.333,27.925,81.21,26.621,81.133,25.317z"/>
	<path filter="url(#drop-shadow)" fill-rule="evenodd" clip-rule="evenodd" d="M297.135,58.737c-0.539-0.209-1.107-0.337-1.564-0.636
		c-0.375-0.244-0.627-0.684-0.918-1.047c-0.678-0.848-0.932-0.897-1.823-0.38c-0.849,0.494-1.691,1.004-2.568,1.442
		c-0.353,0.176-0.789,0.227-1.193,0.254c-0.955,0.063-1.937,0.229-2.863,0.077c-1.535-0.247-3.056-0.649-4.538-1.124
		c-0.429-0.139-0.729-0.732-1.044-1.149c-0.402-0.535-0.688-1.176-1.153-1.641c-0.889-0.889-1.314-2.016-1.849-3.1
		c-0.462-0.941-0.996-1.847-1.484-2.775c-1.021-1.933-1.257-4.062-1.469-6.185c-0.058-0.574,0.198-1.173,0.241-1.767
		c0.178-2.434,0.651-4.819,1.24-7.177c0.446-1.796,1.047-3.554,1.591-5.326c0.671-2.186,1.343-4.374,2.043-6.551
		c0.242-0.756,0.567-1.484,0.856-2.226c0.009-0.021,0.016-0.049,0.032-0.06c1.315-0.855,2.198-2.579,4.137-2.172
		c0.424,0.089,0.849,0.481,1.134,0.843c0.296,0.374,0.354,0.821,1.067,0.617c0.636-0.182,1.462,0.882,1.545,1.742
		c0.173,1.798,0.355,3.597,0.576,5.39c0.037,0.302,0.31,0.568,0.435,0.866c0.233,0.56,0.582,1.12,0.628,1.701
		c0.1,1.263,0.248,2.552-0.604,3.707c-0.243,0.328-0.14,0.894-0.256,1.335c-0.312,1.194-0.66,2.378-0.984,3.569
		c-0.038,0.141-0.018,0.298-0.029,0.561c0.709-0.586,1.315-1.114,1.95-1.604c0.27-0.208,0.596-0.341,0.901-0.499
		c0.137-0.07,0.357-0.078,0.415-0.183c0.66-1.192,1.94-1.927,2.321-3.356c0.176-0.663,0.79-1.201,1.159-1.823
		c0.263-0.446,0.534-0.917,0.648-1.414c0.205-0.9,1.089-1.269,1.454-2.014c0.678-1.386,1.322-2.789,1.951-4.198
		c0.581-1.303,1.15-2.612,1.672-3.94c0.668-1.698,1.684-3.269,1.863-5.153c0.038-0.391,0.303-0.796,0.556-1.123
		c0.495-0.642,1.031-1.255,1.596-1.837c0.351-0.363,0.76-0.687,1.188-0.955c0.343-0.213,0.752-0.316,1.134-0.467
		c0.406-0.162,0.739-0.08,0.896,0.35c0.148,0.408,0.225,0.842,0.373,1.251c0.07,0.192,0.247,0.509,0.351,0.5
		c0.776-0.071,1.075,0.611,1.603,0.921c1.199,0.708,1.188,1.962,1.533,3.068c0.294,0.939,0.617,1.87,0.954,2.794
		c0.059,0.163,0.225,0.348,0.383,0.403c0.807,0.284,1.228,0.897,1.124,1.714c-0.003,0.023-0.015,0.046-0.012,0.067
		c0.153,1.115,0.399,2.225,0.128,3.356c-0.015,0.057,0.029,0.135,0.063,0.193c0.976,1.664,0.68,3.318,0.074,5.027
		c-0.423,1.194-0.646,2.457-0.975,3.686c-0.254,0.949-0.548,1.888-0.801,2.837c-0.348,1.306-0.654,2.623-1.016,3.924
		c-0.494,1.78-1.086,3.537-1.515,5.334c-0.297,1.247-0.346,2.552-0.595,3.813c-0.208,1.056-0.378,2.118-0.943,3.099
		c-0.468,0.809-0.693,1.757-1.024,2.646c-0.062,0.171-0.062,0.395-0.178,0.513c-0.289,0.302-0.675,0.55-0.114,0.944
		c0.024,0.018,0.024,0.089,0.018,0.133c-0.137,0.846-0.102,1.778-0.465,2.515c-0.346,0.702-0.39,1.582-0.77,2.084
		c-0.635,0.84-0.945,1.698-1.171,2.663c-0.095,0.407-0.431,0.555-0.856,0.514c-0.411-0.04-0.838-0.107-1.236-0.04
		c-0.317,0.054-0.688,0.223-0.888,0.463c-0.321,0.385-0.538,0.37-0.907,0.084c-0.879-0.678-1.789-1.314-2.687-1.967
		c-0.055-0.039-0.149-0.076-0.155-0.123c-0.109-0.925-0.937-1.447-1.241-2.251C296.997,59.253,297.115,58.954,297.135,58.737z"/>
	<path filter="url(#drop-shadow)" fill-rule="evenodd" clip-rule="evenodd" d="M19.595,5.541c1.196,0.695,1.248,1.077,0.794,2.704
		c-0.24,0.859-0.225,1.839-0.23,2.765c-0.001,0.188,0.421,0.378,0.648,0.568c0.08-0.054,0.16-0.108,0.239-0.163
		c-0.237,1.229-0.486,2.457-0.71,3.69c-0.408,2.243-0.803,4.49-1.203,6.735c-0.025,0.142,0.004,0.359-0.064,0.42
		c-0.785,0.693-0.574,1.765-0.75,2.703c-0.183,0.985-0.525,1.924-0.768,2.895c-0.185,0.74-0.391,1.488-0.468,2.251
		c-0.209,2.078-0.367,4.164-0.521,6.249c-0.063,0.865,0.147,1.863-0.142,2.573c-0.384,0.941-0.354,1.843-0.357,2.781
		c-0.005,1.235,0.207,1.456,1.221,1.512c0.741,0.039,1.384-0.143,2.011-0.722c0.423-0.391,1.044-0.459,1.574-0.682
		c1.187-0.501,2.356-1.074,3.561-1.497c1.763-0.617,3.547-1.145,5.328-1.681c1.525-0.459,3.044-1.084,4.594-1.251
		c1.499-0.161,2.85-1.046,4.399-0.957c0.966,0.055,1.948-0.594,2.932-0.643c2.194-0.107,4.152-1.187,6.192-1.946
		c0.885-0.33,1.805-0.523,2.681-0.877c0.768-0.311,1.495-0.771,2.247-1.144c0.374-0.186,0.758-0.346,1.146-0.481
		c0.513-0.179,0.999,0.33,0.901,1.08c-0.096,0.735-0.324,1.458-0.575,2.144c-0.371,1.014-0.353,1.087,0.54,1.228
		c0.172,0.027,0.356,0.206,0.479,0.375c0.184,0.251,0.319,0.556,0.474,0.839c0.106,0.193,0.282,0.376,0.303,0.583
		c0.119,1.171,0.292,2.35,0.274,3.523c-0.029,1.85-0.203,3.696-0.298,5.545c-0.018,0.345,0.056,0.695,0.057,1.044
		c0.001,0.249,0.027,0.604-0.089,0.73C55.537,48.949,55,49.385,54.5,49.871c-0.293,0.285-0.683,0.551-0.811,0.934
		c-0.319,0.951-0.862,1.499-1.64,1.773c-1.755,0.618-3.504,1.27-5.269,1.844c-1.537,0.502-3.094,0.915-4.641,1.371
		c-0.162,0.047-0.405,0.058-0.464,0.187c-0.541,1.17-1.558,0.947-2.37,1.11c-1.734,0.347-3.335,1.073-4.947,1.881
		c-1.647,0.826-3.378,1.403-5.066,2.112c-0.601,0.252-1.196,0.536-1.774,0.859c-1.593,0.894-3.176,1.816-4.762,2.728
		c-0.064,0.037-0.123,0.089-0.184,0.135c-1.148,0.886-2.302,1.763-3.441,2.666c-0.235,0.188-0.454,0.441-0.615,0.721
		c-0.755,1.306-1.902,1.789-3.072,2.242c-0.545,0.211-1.078,0.468-1.627,0.661c-0.215,0.077-0.459,0.032-0.689,0.052
		c-0.286,0.024-0.603-0.028-0.85,0.105c-0.636,0.345-1.241,0.777-1.859,1.171c-0.934,0.594-2.345,0.21-3.102-0.615
		c-0.41-0.448-1.026-0.703-1.583-0.844c-0.683-0.171-1.283-0.265-1.235-1.375c0.009-0.22-0.184-0.452-0.281-0.681
		c-0.184-0.431-0.357-0.867-0.55-1.291c-0.261-0.573-0.524-1.146-0.811-1.7c-0.391-0.759-0.943-1.381-1.016-2.377
		c-0.067-0.916-0.408-1.649-1.3-1.812C0.326,61.689-0.009,61.236,0,60.989c0.049-1.298,0.185-2.594,0.303-3.889
		c0.108-1.187,0.158-2.388,0.363-3.55c0.317-1.794,0.627-3.615,1.175-5.313c0.299-0.926,0.341-1.818,0.478-2.74
		c0.147-0.991,0.524-1.928,0.714-2.912c0.19-0.983,0.273-1.998,0.402-2.998c0.025-0.198,0.004-0.43,0.083-0.588
		c1.068-2.165,1.101-4.687,1.621-7.038c0.21-0.947,0.566-1.696,1.103-2.369c0.384-0.482,0.824-0.896,0.238-1.658
		c-0.148-0.193-0.012-0.851,0.136-1.206c0.213-0.507,0.574-0.92,0.84-1.398c0.156-0.28,0.297-0.596,0.362-0.92
		c0.217-1.07,0.396-2.152,0.593-3.228c0.021-0.113,0.036-0.261,0.099-0.324c0.791-0.784,0.581-1.898,0.691-2.918
		c0.043-0.407,0.319-0.775,0.369-1.183c0.045-0.369-0.072-0.768-0.125-1.205c0.786-0.695,1.4-1.582,1.62-3.016
		c0.225-1.467,0.176-3.062,1.044-4.375c0.396-0.598,0.508-1.498,0.681-2.283c0.227-1.029,0.683-1.799,1.383-2.448
		c0.372-0.346,0.647-0.911,0.85-1.442c0.266-0.696,0.605-0.899,1.213-0.615c0.395,0.185,0.816,0.326,1.235,0.383
		c0.477,0.065,0.83-0.168,0.917-0.835C18.467,0.337,18.752-0.003,19.279,0c0.48,0.002,0.679,0.188,0.621,0.843
		C19.763,2.372,19.696,3.909,19.595,5.541z"/>
	<path filter="url(#drop-shadow)" fill-rule="evenodd" clip-rule="evenodd" d="M138.603,60.462c0.676,0.419,0.646,0.85,0.506,1.25
		c-0.034,0.098-0.384,0.084-0.588,0.123C138.545,61.433,138.569,61.031,138.603,60.462z"/>
	<path filter="url(#drop-shadow)" fill-rule="evenodd" clip-rule="evenodd" d="M135.873,57.792c-0.13-0.337-0.273-0.525-0.226-0.62
		c0.109-0.22,0.31-0.394,0.473-0.586c0.079,0.165,0.246,0.349,0.216,0.49C136.294,57.278,136.107,57.449,135.873,57.792z"/>
	<path filter="url(#drop-shadow)" fill-rule="evenodd" clip-rule="evenodd" d="M163.311,75.062c0.054-0.519,0.105-1.015,0.164-1.578
		C163.917,74.093,163.829,74.839,163.311,75.062z"/>
	<path filter="url(#drop-shadow)" fill-rule="evenodd" clip-rule="evenodd" d="M246.321,28.643c0.132,0.314,0.236,0.447,0.234,0.58
		c-0.006,0.97,0.091,1.91-0.338,2.884c-0.48,1.086-0.646,2.312-0.948,3.477c-0.033,0.133-0.035,0.283-0.1,0.398
		c-0.058,0.104-0.182,0.173-0.276,0.257c-0.087-0.111-0.26-0.235-0.246-0.333c0.07-0.49,0.191-0.972,0.292-1.458
		c0.101-0.49,0.171-0.989,0.308-1.47c0.083-0.294,0.271-0.559,0.396-0.843c0.06-0.135,0.102-0.283,0.12-0.43
		c0.099-0.818,0.183-1.639,0.289-2.457C246.073,29.096,246.18,28.954,246.321,28.643z"/>
	<path filter="url(#drop-shadow)" fill-rule="evenodd" clip-rule="evenodd" d="M244.067,39.303c0.055-0.548,0.11-1.096,0.166-1.644
		c0.119,0.016,0.239,0.031,0.359,0.047c-0.091,0.544-0.181,1.088-0.271,1.631C244.237,39.326,244.152,39.314,244.067,39.303z"/>
</g>
</svg>
