<?xml version="1.0" encoding="utf-8"?>
<!-- Generator: Adobe Illustrator 16.0.0, SVG Export Plug-In . SVG Version: 6.00 Build 0)  -->
<!DOCTYPE svg PUBLIC "-//W3C//DTD SVG 1.1//EN" "http://www.w3.org/Graphics/SVG/1.1/DTD/svg11.dtd">
<svg version="1.1" id="Layer_1" xmlns="http://www.w3.org/2000/svg" xmlns:xlink="http://www.w3.org/1999/xlink" x="0px" y="0px"
	 width="127.978px" height="60.152px" viewBox="0 0 127.978 60.152" enable-background="new 0 0 127.978 60.152"
	 xml:space="preserve">
	 <defs>
      <filter id="drop-shadow" x="0" y="0" width="100%" height="100%">
        <feOffset result="offOut" in="SourceAlpha" dx="3" dy="3" />
        <feGaussianBlur result="blurOut" in="offOut" stdDeviation="2" />
        <feBlend in="SourceGraphic" in2="blurOut" mode="normal" />
      </filter>
    </defs>
<g>
	<path filter="url(#drop-shadow)" d="M59.755,60.152c-0.716,0-1.432,0-2.148,0c-3.639-1.627-7.157-3.688-10.955-4.737c-2.836-0.782-4.134-2.115-4.569-4.782
		c-0.171-1.055-0.634-2.071-0.725-3.126c-0.214-2.481-1.328-4.467-2.959-6.273c-3.358-3.717-6.667-7.478-9.994-11.222
		c-1.503-1.691-3.003-3.386-4.504-5.079c-0.271,0.158-0.542,0.315-0.813,0.473c-0.185,1.46-0.424,2.915-0.544,4.379
		c-0.674,8.195-1.268,16.397-1.993,24.588c-0.393,4.443-2.304,5.717-6.659,4.609c-3.254-0.827-6.494-1.712-9.721-2.638
		c-3.51-1.006-4.258-1.868-4.162-5.438C0.318,39.32,0.706,27.735,1.115,16.151c0.119-3.359,0.358-6.716,0.642-10.066
		c0.32-3.771,2.076-5.039,5.704-4.274c1.958,0.412,3.912,0.85,5.879,1.208c6.428,1.172,12.126,3.86,16.837,8.395
		c3.036,2.922,5.812,6.113,8.78,9.107c0.702,0.708,1.712,1.109,2.581,1.652c0.324-0.908,0.845-1.796,0.938-2.728
		c0.376-3.771,0.606-7.558,0.929-11.335c0.063-0.743,0.303-1.47,0.451-2.156c0.46,0,0.688-0.054,0.88,0.007
		c4.134,1.311,4.134,1.314,5.288-2.852c0.076-0.275,0.186-0.545,0.229-0.826c0.243-1.621,1.341-2.333,2.753-1.911
		c2.501,0.748,5.037,1.56,7.33,2.775c2.545,1.349,3.035,3.076,2.446,5.944c-0.187,0.909-0.397,1.824-0.466,2.746
		c-0.763,10.271-1.537,20.542-2.203,30.819c-0.099,1.525,0.484,3.084,0.507,4.631c0.058,3.879-0.001,7.76-0.087,11.639
		C60.524,59.34,60.026,59.744,59.755,60.152z"/>
	<path filter="url(#drop-shadow)" fill-rule="evenodd" clip-rule="evenodd" d="M100.143,0c6.61,2.823,13.267,5.545,19.816,8.503
		c4.777,2.157,8.522,9.174,7.963,14.37c-0.423,3.91-0.542,7.89-1.381,11.71c-3.319,15.122-18.844,24.196-34.448,20.216
		c-6.248-1.593-12.233-3.689-17.355-8.003c-6.305-5.31-7.425-11.836-5.781-19.368c1.675-7.669,5.992-14.007,10.221-20.386
		c0.447-0.676,1.225-1.302,1.983-1.576c4.653-1.681,8.781-4.81,13.942-5.105C95.356,0.347,95.599,0.125,95.846,0
		C97.279,0,98.71,0,100.143,0z M111.813,18.876c-0.144-0.683-0.278-1.901-0.659-3.037c-1.705-5.086-7.581-6.449-10.722-2.086
		c-5.618,7.802-9.612,16.532-12.224,25.792c-0.953,3.384,0.3,4.351,3.738,3.677C104.364,40.793,110.313,31.522,111.813,18.876z"/>
</g>
</svg>
