<?xml version="1.0" encoding="utf-8"?>
<!-- Generator: Adobe Illustrator 16.0.0, SVG Export Plug-In . SVG Version: 6.00 Build 0)  -->
<!DOCTYPE svg PUBLIC "-//W3C//DTD SVG 1.1//EN" "http://www.w3.org/Graphics/SVG/1.1/DTD/svg11.dtd">
<svg version="1.1" id="main" xmlns="http://www.w3.org/2000/svg" xmlns:xlink="http://www.w3.org/1999/xlink" x="0px" y="0px"
	 width="162.308px" height="56px" viewBox="0 0 162.308 56" enable-background="new 0 0 162.308 56" xml:space="preserve">
	 <defs>
      <filter id="drop-shadow" x="0" y="0" width="100%" height="100%">
        <feOffset result="offOut" in="SourceAlpha" dx="3" dy="3" />
        <feGaussianBlur result="blurOut" in="offOut" stdDeviation="2" />
        <feBlend in="SourceGraphic" in2="blurOut" mode="normal" />
      </filter>
    </defs>
<g>
	<path filter="url(#drop-shadow)" fill-rule="evenodd" clip-rule="evenodd" d="M0,45.367c5.424-1.063,10.858-2.077,16.268-3.208
		c3.962-0.829,7.892-1.812,11.799-3.124c-2.643-0.251-5.282-0.552-7.929-0.743C11.294,37.654,7.339,28.075,8.878,22.298
		c0.321-1.206,1.006-2.404,1.802-3.378c4.426-5.414,10.396-8.601,16.691-11.267c2.942-1.246,5.899-2.395,9.237-1.764
		c1.381,0.261,2.125,0.998,2.341,2.269c0.326,1.917,0.601,3.848,0.782,5.783c0.174,1.856-0.387,2.492-2.18,2.695
		c-7.625,0.862-13.607,4.992-19.305,9.689c-0.111,0.092-0.115,0.313-0.242,0.692c0.861,0.109,1.647,0.266,2.438,0.3
		c5.84,0.256,11.685,0.432,17.521,0.758c2.106,0.118,4.214,0.485,6.284,0.917c1.682,0.351,2.736,1.447,3.107,3.229
		c0.481,2.308,1.067,4.596,1.686,6.871c0.493,1.813,0.071,3.385-1.425,4.398c-1.632,1.105-3.382,2.146-5.227,2.809
		c-4.816,1.729-9.653,3.46-14.594,4.768c-5.336,1.413-10.783,2.436-16.216,3.44c-1.767,0.327-3.645,0.107-5.469,0.054
		c-1.589-0.047-2.56-1.004-3.226-2.385C1.953,50.247,0.964,48.345,0,46.431C0,46.076,0,45.722,0,45.367z"/>
	<path filter="url(#drop-shadow)" fill-rule="evenodd" clip-rule="evenodd" d="M142.481,0c1.325,0.47,2.625,1.038,3.979,1.396
		c8.666,2.289,13.034,8.399,15.354,16.635c1.166,4.138,0.312,7.351-3.025,9.86c-4.52,3.398-9.591,5.563-15.292,5.82
		c-3.502,0.158-4.673-0.74-6.202-4.145c-0.275,0.72-0.507,1.215-0.657,1.733c-2.062,7.101-3.812,14.248-3.415,21.74
		c0.052,0.979-0.199,1.974-0.311,2.96c-0.236,0-0.473,0-0.709,0c-2.886-3.331-5.241-6.828-5.429-11.52
		c-0.399-9.987,1.998-19.293,6.368-28.169c0.553-1.122,0.634-2.114,0.352-3.361c-0.569-2.519-0.906-5.099-1.203-7.669
		c-0.154-1.335,1.691-3.837,3.071-4.182c1.875-0.468,3.799-0.743,5.701-1.1C141.536,0,142.008,0,142.481,0z M139.501,23.707
		c0.513,0.042,0.799,0.114,1.073,0.082c4.521-0.533,8.703-1.991,12.372-4.729c0.976-0.728,1.863-1.608,2.642-2.544
		c0.236-0.285,0.177-1.215-0.098-1.466c-3.986-3.647-8.585-5.774-14.113-5.112c-3.574,0.428-4.205,1.726-2.878,5.02
		C139.618,17.731,141.362,20.458,139.501,23.707z"/>
	<path filter="url(#drop-shadow)" fill-rule="evenodd" clip-rule="evenodd" d="M93.485,5.066c-0.684,0.563-1.405,1.089-2.033,1.709
		c-0.232,0.23-0.396,0.72-0.316,1.02c0.076,0.291,0.472,0.547,0.782,0.719c1.207,0.671,2.409,1.362,3.668,1.922
		c0.568,0.253,1.333,0.441,1.895,0.274c5.79-1.725,11.487-1.462,17.183,0.469c2.203,0.747,3.61,2.173,4.358,4.293
		c0.802,2.276,1.538,4.577,2.281,6.875c0.923,2.852,0.745,5.638-0.224,8.488c-3.402,10.006-10.359,16.384-20.104,19.961
		c-2.652,0.973-5.403,1.28-8.182,0.636c-2.913-0.676-5.439-1.997-6.839-4.817c-1.02-2.054-2.046-4.115-2.874-6.249
		c-0.894-2.304-0.81-4.763,0.425-6.861c1.786-3.036,3.924-5.863,5.887-8.796c0.642-0.959,1.849-1.561,1.107-3.267
		c-0.35-0.805,0.682-2.209,1.13-3.46c-0.482,0.386-0.907,0.726-1.332,1.066c-0.125-0.049-0.25-0.098-0.376-0.147
		c0.285-1.412,0.57-2.824,0.874-4.33c-3.002,0.456-6.134,0.926-9.264,1.407c-3.672,0.563-7.338,1.175-11.018,1.679
		c-1.107,0.151-1.479,0.534-1.076,1.593c0.56,1.469,0.343,2.86-0.347,4.253c-1.974,3.993-2.531,8.279-2.806,12.682
		c-0.264,4.228-0.89,8.436-1.455,12.639c-0.155,1.149-0.569,2.291-1.031,3.365c-0.772,1.795-2.521,2.08-3.866,0.612
		c-0.62-0.678-1.043-1.556-1.466-2.389c-0.69-1.36-1.35-2.739-1.931-4.147c-0.212-0.516-0.303-1.161-0.212-1.707
		c1.05-6.275,2.115-12.549,3.248-18.809c0.373-2.062,0.955-4.085,1.51-6.416c-2.291,0.377-4.304,0.731-6.324,1.031
		c-0.987,0.146-1.992,0.292-2.983,0.261c-1.724-0.055-2.852-0.928-3.268-2.678c-0.408-1.716-0.913-3.409-1.342-5.121
		c-0.309-1.232-0.149-2.283,1.35-2.554c13.925-2.515,27.807-5.345,41.991-6.064c0.911-0.046,1.834,0.134,2.752,0.209
		C93.334,4.633,93.41,4.849,93.485,5.066z M90.62,39.612c0.133,0.215,0.266,0.43,0.398,0.644c0.978,0,1.986,0.16,2.928-0.024
		c10.548-2.068,18.126-8.07,22.923-17.61c0.377-0.749,0.456-2.24-0.006-2.691c-0.939-0.919-2.283-1.592-3.575-1.935
		c-1.112-0.295-2.384,0.022-3.585,0.043c-1.149,0.019-2.299,0.004-3.472,0.004c0.357,1.586,0.743,3.005,0.962,4.449
		c0.065,0.435-0.202,1.105-0.546,1.388c-2.677,2.201-5.622,4.117-8.069,6.542C95.707,33.265,93.254,36.53,90.62,39.612z"/>
</g>
</svg>
