<?xml version="1.0" encoding="utf-8"?>
<!-- Generator: Adobe Illustrator 16.0.0, SVG Export Plug-In . SVG Version: 6.00 Build 0)  -->
<!DOCTYPE svg PUBLIC "-//W3C//DTD SVG 1.1//EN" "http://www.w3.org/Graphics/SVG/1.1/DTD/svg11.dtd">
<svg version="1.1" id="Layer_2" xmlns="http://www.w3.org/2000/svg" xmlns:xlink="http://www.w3.org/1999/xlink" x="0px" y="0px"
	 width="69.504px" height="7.768px" viewBox="0 0 69.504 7.768" enable-background="new 0 0 69.504 7.768" xml:space="preserve">
	 <defs>
      <filter id="drop-shadow" x="0" y="0" width="100%" height="100%">
        <feOffset result="offOut" in="SourceAlpha" dx="3" dy="3" />
        <feGaussianBlur result="blurOut" in="offOut" stdDeviation="2" />
        <feBlend in="SourceGraphic" in2="blurOut" mode="normal" />
      </filter>
    </defs>
<g>
	<path filter="url(#drop-shadow)" d="M12.351,1.529c1.619-0.21,3.348-0.405,5.13-0.507c0.891-0.058,1.795-0.11,2.706-0.158c0.91-0.042,1.827-0.068,2.744-0.1
		c3.671-0.131,7.333-0.162,10.642-0.38C41.515-0.158,50.12-0.021,57.95,0.159c-0.016,0.227-0.691,0.551-0.046,0.679
		c2.587,0.398,2.554,0.851,2.521,1.303c-0.016,0.227-1.955-0.044-1.318,0.197c-1.954-0.046-5.224,0-3.281,0.267
		c0.637,0.239,3.258,0.073,3.885,0.426c0.628,0.354-0.698,0.665-0.07,1.018c0.65,0.015,1.953,0.045,2.604,0.06
		c0.636,0.242-0.698,0.664-0.048,0.679c1.937,0.272,4.554,0.218,7.164,0.275c-0.015,0.227,0.625,0.467-0.688,0.551
		C57.225,5.483,45.722,5.299,34.391,5.514c-11.33,0.209-22.48,0.83-33.119,2.21c-2.473,0.227-0.869-0.461,0.84-1.049
		C1.544,6.87,1.402,6.54,0.833,6.736C0.686,6.413,1.677,5.672,4.156,5.237C3.521,5.305,2.9,5.4,2.272,5.486
		C1.6,5.463,2.134,5.156,2.045,4.935c0.632-0.088,1.264-0.176,1.22-0.287c-0.043-0.11-0.129-0.331-0.172-0.441
		C2.456,4.295,1.181,4.473,0.544,4.562c0.637-0.089,1.274-0.178,1.229-0.288c-0.045-0.11-0.137-0.331-0.182-0.441
		c1.238-0.307,3.272-0.289,4.526-0.556L6.004,2.943C4.663,2.989,2.741,3.305,1.455,3.502c0.603-0.2,0.559-0.311,0.47-0.531
		c0.952-0.2,1.964-0.238,2.954-0.331c0.995-0.08,1.97-0.215,2.908-0.466c-0.66,0.057-1.315,0.137-1.971,0.213
		c0.28-0.176,0.708-0.308,1.221-0.403c0.515-0.089,1.116-0.146,1.74-0.191C10.027,1.708,11.369,1.649,12.351,1.529z"/>
</g>
</svg>
